<svg xmlns="http://www.w3.org/2000/svg" width="11.988" height="12" viewBox="0 0 11.988 12">
  <path id="Path_35906" data-name="Path 35906" d="M1.538,13a.528.528,0,0,1-.507-.7L2.158,8.6A5.468,5.468,0,0,1,1.791,6.6a5.637,5.637,0,0,1,.437-2.184,5.722,5.722,0,0,1,1.2-1.776,5.517,5.517,0,0,1,1.783-1.2,5.581,5.581,0,0,1,4.362,0,5.6,5.6,0,0,1,1.776,9.118,5.72,5.72,0,0,1-1.776,1.2,5.637,5.637,0,0,1-4.179.071l-3.7,1.127A.584.584,0,0,1,1.538,13ZM7.386,2.078A4.538,4.538,0,0,0,3.2,8.377a.528.528,0,0,1,0,.359l-.867,2.938,2.924-.888a.529.529,0,0,1,.359,0,4.594,4.594,0,0,0,3.523,0A4.532,4.532,0,0,0,7.386,2.078Z" transform="translate(-1 -1)" fill="#64748b"/>
</svg>
