<svg xmlns="http://www.w3.org/2000/svg" width="9.831" height="10.82" viewBox="0 0 9.831 10.82">
  <path id="Path_35890" data-name="Path 35890" d="M5,.75H5.83c.262,0,.483,0,.667.015A1.5,1.5,0,0,1,7.07.911a1.475,1.475,0,0,1,.642.645,1.5,1.5,0,0,1,.146.574c.014.165.015.362.015.59H9.839a.492.492,0,0,1,0,.983H9.351V8.739c0,.393,0,.721-.022.989a2.011,2.011,0,0,1-.193.769,1.966,1.966,0,0,1-.86.86,2.011,2.011,0,0,1-.769.193c-.266.022-.59.022-.989.022h-2.2c-.393,0-.721,0-.989-.022a2.011,2.011,0,0,1-.769-.193,1.967,1.967,0,0,1-.86-.86,2.012,2.012,0,0,1-.193-.769c-.022-.266-.022-.59-.022-.989V3.7H.992a.492.492,0,0,1,0-.983H2.959c0-.226,0-.422.015-.59a1.5,1.5,0,0,1,.149-.571A1.475,1.475,0,0,1,3.767.911,1.5,1.5,0,0,1,4.341.766C4.522.75,4.746.75,5,.75ZM2.467,3.7V8.716c0,.421,0,.707.018.929a1.062,1.062,0,0,0,.089.4.984.984,0,0,0,.43.43,1.062,1.062,0,0,0,.4.089c.222.018.508.018.929.018H6.5c.421,0,.707,0,.929-.018a1.062,1.062,0,0,0,.4-.089.984.984,0,0,0,.429-.43,1.061,1.061,0,0,0,.089-.4c.019-.222.019-.508.019-.929V3.7Zm4.425-.983H3.942c0-.229,0-.385.012-.507A.561.561,0,0,1,4,2a.492.492,0,0,1,.215-.215.561.561,0,0,1,.207-.042c.139-.012.323-.012.606-.012h.787c.283,0,.467,0,.606.012a.561.561,0,0,1,.207.042A.492.492,0,0,1,6.839,2a.56.56,0,0,1,.042.207C6.89,2.332,6.892,2.488,6.892,2.717Z" transform="translate(-0.5 -0.75)" fill="#64748b" fill-rule="evenodd"/>
</svg>
