<svg xmlns="http://www.w3.org/2000/svg" width="8.601" height="10.82" viewBox="0 0 8.601 10.82">
  <path id="Path_35889" data-name="Path 35889" d="M9.317,3.191,6.249.122A.416.416,0,0,0,5.955,0H4.584A1.526,1.526,0,0,0,3.058,1.526V2.22H2.365A1.526,1.526,0,0,0,.839,3.745V9.294A1.526,1.526,0,0,0,2.365,10.82H6.249A1.526,1.526,0,0,0,7.775,9.294V8.6h.139A1.526,1.526,0,0,0,9.439,7.075V3.468A.416.416,0,0,0,9.317,3.191Zm-2.93-1.77L8.019,3.052H6.388Zm.555,7.874a.694.694,0,0,1-.694.694H2.365a.694.694,0,0,1-.694-.694V3.745a.694.694,0,0,1,.694-.694h.694V7.075A1.526,1.526,0,0,0,4.584,8.6H6.943Zm.971-1.526H4.584a.694.694,0,0,1-.694-.694V1.526A.694.694,0,0,1,4.584.832h.971V3.468a.422.422,0,0,0,.416.416H8.607V7.075a.694.694,0,0,1-.694.694Z" transform="translate(-0.839)" fill="#64748b"/>
</svg>
