<svg xmlns="http://www.w3.org/2000/svg" width="9.57" height="9.57" viewBox="0 0 9.57 9.57">
  <path id="Path_35891" data-name="Path 35891" d="M6.634.5A1.717,1.717,0,0,1,9.062,2.931L3.139,8.856l-.022.022a2.111,2.111,0,0,1-.322.283,1.348,1.348,0,0,1-.326.157,2.114,2.114,0,0,1-.422.074H2.015L.5,9.567a.449.449,0,0,1-.5-.5L.167,7.551V7.519A2.108,2.108,0,0,1,.241,7.1,1.346,1.346,0,0,1,.4,6.771,2.109,2.109,0,0,1,.681,6.45L.7,6.428Zm1.794.634a.82.82,0,0,0-1.16,0L1.345,7.061a1.631,1.631,0,0,0-.191.2.447.447,0,0,0-.052.109,1.63,1.63,0,0,0-.04.276l-.107.96L1.917,8.5a1.639,1.639,0,0,0,.275-.04A.45.45,0,0,0,2.3,8.411a1.64,1.64,0,0,0,.2-.191L8.428,2.3a.818.818,0,0,0,0-1.16Z" transform="translate(0.004)" fill="#64748b" fill-rule="evenodd"/>
</svg>
