<svg xmlns="http://www.w3.org/2000/svg" width="16.056" height="13.335" viewBox="0 0 16.056 13.335">
  <g id="Group_30747" data-name="Group 30747" transform="translate(0.1 0.102)">
    <path id="Path_35892" data-name="Path 35892" d="M9.7,6.838a2.369,2.369,0,0,1-.448.457h.078a1.333,1.333,0,0,1,1.332,1.332v3.128h-5.7V8.634A1.333,1.333,0,0,1,6.3,7.3h.078a2.37,2.37,0,0,1-.452-.464,1.83,1.83,0,0,0-1.453,1.8v3.218a.406.406,0,0,0,.406.406h5.877a.406.406,0,0,0,.406-.406V8.634A1.83,1.83,0,0,0,9.7,6.838Z" transform="translate(0.115 0.876)" fill="#64748b" stroke="#64748b" stroke-width="0.2"/>
    <path id="Path_35893" data-name="Path 35893" d="M7.07,7.319a1.858,1.858,0,1,0,.544-1.314A1.858,1.858,0,0,0,7.07,7.319ZM8.928,5.956a1.362,1.362,0,1,1-.963.4A1.362,1.362,0,0,1,8.928,5.956ZM1.5,7.69a2.232,2.232,0,0,1,2.23-2.229H3.99A2.608,2.608,0,0,1,3.31,5,2.73,2.73,0,0,0,1,7.69v2.973a.5.5,0,0,0,.5.5H5.088v-.5H1.5ZM6.189,5.461h.264a2.216,2.216,0,0,1,.844.166,2.365,2.365,0,0,1,.445-.337A2.706,2.706,0,0,0,6.871,5a2.608,2.608,0,0,1-.679.462ZM7.195,3.108a2.106,2.106,0,1,0-.16.806A2.106,2.106,0,0,0,7.195,3.108ZM5.088,4.717a1.611,1.611,0,1,1,1.139-.472A1.611,1.611,0,0,1,5.088,4.717Zm6.317.744h.264A2.609,2.609,0,0,1,10.991,5a2.706,2.706,0,0,0-.872.292,2.365,2.365,0,0,1,.445.337A2.216,2.216,0,0,1,11.406,5.461ZM14.55,5a2.608,2.608,0,0,1-.68.464h.264a2.232,2.232,0,0,1,2.23,2.23v2.973h-3.6v.5h3.593a.5.5,0,0,0,.5-.5V7.69A2.73,2.73,0,0,0,14.55,5Zm-1.781.215A2.106,2.106,0,1,0,11.28,4.6,2.106,2.106,0,0,0,12.769,5.212Zm0-3.716a1.611,1.611,0,1,1-1.139.472A1.61,1.61,0,0,1,12.769,1.5Z" transform="translate(-1 -1)" fill="#64748b" stroke="#64748b" stroke-width="0.2"/>
  </g>
</svg>
