<svg id="Group_30750" data-name="Group 30750" xmlns="http://www.w3.org/2000/svg" width="10.521" height="12.591" viewBox="0 0 10.521 12.591">
  <path id="Path_35897" data-name="Path 35897" d="M5.594,13.341a.468.468,0,0,1-.278-.088C5.112,13.124.333,9.913.333,6.01a5.26,5.26,0,0,1,10.521,0c0,3.9-4.751,7.113-4.982,7.242A.468.468,0,0,1,5.594,13.341Zm0-11.539A4.229,4.229,0,0,0,1.351,6.01c0,2.858,3.251,5.471,4.242,6.2.991-.726,4.242-3.34,4.242-6.2A4.229,4.229,0,0,0,5.594,1.8Z" transform="translate(-0.333 -0.75)" fill="#64748b"/>
  <path id="Path_35898" data-name="Path 35898" d="M5.117,7.137a1.867,1.867,0,1,1,1.32-.547A1.867,1.867,0,0,1,5.117,7.137Zm0-2.715a.848.848,0,1,0,.6.249A.848.848,0,0,0,5.117,4.422Z" transform="translate(0.144 -0.316)" fill="#64748b"/>
</svg>
