<svg xmlns="http://www.w3.org/2000/svg" width="14.029" height="11.87" viewBox="0 0 14.029 11.87">
  <g id="Group_30755" data-name="Group 30755" transform="translate(-0.556 -0.334)">
    <path id="Path_35900" data-name="Path 35900" d="M7.765,5.01H5.606A1.266,1.266,0,0,1,4.347,3.751V1.593A1.266,1.266,0,0,1,5.606.334H7.765A1.266,1.266,0,0,1,9.024,1.593V3.751A1.266,1.266,0,0,1,7.765,5.01Zm-2.158-3.6a.18.18,0,0,0-.18.18V3.751a.18.18,0,0,0,.18.18H7.765a.18.18,0,0,0,.18-.18V1.593a.18.18,0,0,0-.18-.18Z" transform="translate(0.885)" fill="#64748b"/>
    <path id="Path_35901" data-name="Path 35901" d="M3.253,10.707H1.815A1.266,1.266,0,0,1,.556,9.448V8.009A1.266,1.266,0,0,1,1.815,6.75H3.253A1.266,1.266,0,0,1,4.512,8.009V9.448a1.266,1.266,0,0,1-1.259,1.259ZM1.815,7.829a.18.18,0,0,0-.18.18V9.448a.18.18,0,0,0,.18.18H3.253a.18.18,0,0,0,.18-.18V8.009a.18.18,0,0,0-.18-.18Z" transform="translate(0 1.497)" fill="#64748b"/>
    <path id="Path_35902" data-name="Path 35902" d="M7.337,10.707H5.9A1.266,1.266,0,0,1,4.639,9.448V8.009A1.266,1.266,0,0,1,5.9,6.75H7.337A1.266,1.266,0,0,1,8.6,8.009V9.448a1.266,1.266,0,0,1-1.259,1.259ZM5.9,7.829a.18.18,0,0,0-.18.18V9.448a.18.18,0,0,0,.18.18H7.337a.18.18,0,0,0,.18-.18V8.009a.18.18,0,0,0-.18-.18Z" transform="translate(0.953 1.497)" fill="#64748b"/>
    <path id="Path_35903" data-name="Path 35903" d="M11.42,10.707H9.981A1.266,1.266,0,0,1,8.722,9.448V8.009A1.266,1.266,0,0,1,9.981,6.75H11.42a1.266,1.266,0,0,1,1.259,1.259V9.448a1.266,1.266,0,0,1-1.259,1.259ZM9.981,7.829a.18.18,0,0,0-.18.18V9.448a.18.18,0,0,0,.18.18H11.42a.18.18,0,0,0,.18-.18V8.009a.18.18,0,0,0-.18-.18Z" transform="translate(1.906 1.497)" fill="#64748b"/>
    <path id="Path_35904" data-name="Path 35904" d="M12.334,8.237a.547.547,0,0,1-.54-.54V6.259a.18.18,0,0,0-.18-.18H2.981a.18.18,0,0,0-.18.18V7.7a.54.54,0,1,1-1.079,0V6.259A1.266,1.266,0,0,1,2.981,5h8.633a1.266,1.266,0,0,1,1.259,1.259V7.7a.547.547,0,0,1-.54.54Z" transform="translate(0.272 1.089)" fill="#64748b"/>
    <path id="Path_35905" data-name="Path 35905" d="M6.345,8.646a.547.547,0,0,1-.54-.54V3.79a.54.54,0,1,1,1.079,0V8.106a.547.547,0,0,1-.54.54Z" transform="translate(1.225 0.68)" fill="#64748b"/>
  </g>
</svg>
